<?xml version="1.0" encoding="UTF-8"?>
<svg version="1.1" xmlns="http://www.w3.org/2000/svg" width="200" height="200">
<path d="M0 0 C66 0 132 0 200 0 C200 66 200 132 200 200 C134 200 68 200 0 200 C0 134 0 68 0 0 Z " fill="#0049AE" transform="translate(0,0)"/>
<path d="M0 0 C1.02996094 -0.00128906 2.05992188 -0.00257812 3.12109375 -0.00390625 C4.74724609 0.00189453 4.74724609 0.00189453 6.40625 0.0078125 C7.49035156 0.00394531 8.57445313 0.00007813 9.69140625 -0.00390625 C10.72136719 -0.00261719 11.75132813 -0.00132813 12.8125 0 C14.24045898 0.00169189 14.24045898 0.00169189 15.69726562 0.00341797 C17.90625 0.1328125 17.90625 0.1328125 18.90625 1.1328125 C18.9998419 2.85146659 19.02369611 4.57396994 19.01977539 6.29516602 C19.01969986 7.39623184 19.01962433 8.49729767 19.01954651 9.63172913 C19.01438522 10.8296257 19.00922394 12.02752228 19.00390625 13.26171875 C19.0024913 14.48108627 19.00107635 15.7004538 18.99961853 16.95677185 C18.99399967 20.8696432 18.98144396 24.78245831 18.96875 28.6953125 C18.96373743 31.34049397 18.9591741 33.98567633 18.95507812 36.63085938 C18.94487296 43.13154976 18.92530121 49.63211783 18.90625 56.1328125 C31.44625 56.1328125 43.98625 56.1328125 56.90625 56.1328125 C56.90625 62.7328125 56.90625 69.3328125 56.90625 76.1328125 C36.11625 76.1328125 15.32625 76.1328125 -6.09375 76.1328125 C-6.13385881 57.45547695 -6.13385881 57.45547695 -6.14257812 49.52148438 C-6.14856633 44.09821602 -6.15566604 38.67496447 -6.16918945 33.25170898 C-6.18001914 28.8815842 -6.18602701 24.51147742 -6.18862724 20.14134026 C-6.19048135 18.47030287 -6.19410168 16.79926653 -6.19948006 15.12823677 C-6.20669159 12.79583699 -6.2077409 10.46351257 -6.20727539 8.13110352 C-6.21087067 7.4333934 -6.21446594 6.73568329 -6.21817017 6.01683044 C-6.20548223 0.17954166 -5.72290107 0.00678069 0 0 Z " fill="#F2F7FA" transform="translate(95.09375,57.8671875)"/>
<path d="M0 0 C7.26 0 14.52 0 22 0 C22 19.14 22 38.28 22 58 C14.74 58 7.48 58 0 58 C0 38.86 0 19.72 0 0 Z " fill="#F3F8FC" transform="translate(52,76)"/>
<path d="M0 0 C0.66 0 1.32 0 2 0 C2 1.65 2 3.3 2 5 C-64 5 -130 5 -198 5 C-197.67 4.01 -197.34 3.02 -197 2 C-132.32 2.33 -67.64 2.66 -1 3 C-0.67 2.01 -0.34 1.02 0 0 Z " fill="#F4FDFE" transform="translate(198,195)"/>
<path d="M0 0 C64.02 0 128.04 0 194 0 C194.33 1.98 194.66 3.96 195 6 C194.01 6 193.02 6 192 6 C192 5.01 192 4.02 192 3 C128.64 2.67 65.28 2.34 0 2 C0 1.34 0 0.68 0 0 Z " fill="#114A8D" transform="translate(3,1)"/>
<path d="M0 0 C0.66 0 1.32 0 2 0 C2.33 1.98 2.66 3.96 3 6 C3.66 6 4.32 6 5 6 C5 4.35 5 2.7 5 1 C7 3 7 3 7.20254517 5.17666626 C7.18033905 6.07823456 7.15813293 6.97980286 7.13525391 7.90869141 C7.11508209 8.92959869 7.09491028 9.95050598 7.0741272 11.00234985 C7.02583267 12.66021011 7.02583267 12.66021011 6.9765625 14.3515625 C6.95153656 15.4807309 6.92651062 16.60989929 6.90072632 17.77328491 C6.81835115 21.39082078 6.7218287 25.00782489 6.625 28.625 C6.5667784 31.07289473 6.50947476 33.52081147 6.453125 35.96875 C6.31274631 41.97946299 6.16074137 47.98979898 6 54 C7.62796509 53.99214478 7.62796509 53.99214478 9.28881836 53.98413086 C13.30117982 53.96608164 17.31353767 53.95456829 21.32592773 53.94506836 C23.06519168 53.94002796 24.80445136 53.9331957 26.54370117 53.92456055 C29.03825937 53.91248208 31.53276173 53.90676892 34.02734375 53.90234375 C34.80963852 53.89718246 35.59193329 53.89202118 36.39793396 53.88670349 C38.26567114 53.88650774 40.13329204 53.93800306 42 54 C43 55 43 55 43.0625 58.5625 C43.041875 59.696875 43.02125 60.83125 43 62 C42.34 62 41.68 62 41 62 C41 66.29 41 70.58 41 75 C40.01 75.495 40.01 75.495 39 76 C39 69.4 39 62.8 39 56 C26.46 56 13.92 56 1 56 C0.67 37.52 0.34 19.04 0 0 Z " fill="#0B4DA8" transform="translate(113,58)"/>
<path d="M0 0 C7.26 0 14.52 0 22 0 C22 4.62 22 9.24 22 14 C14.74 14 7.48 14 0 14 C0 9.38 0 4.76 0 0 Z " fill="#F0F7FB" transform="translate(52,55)"/>
<path d="M0 0 C66 0 132 0 200 0 C200 1.32 200 2.64 200 4 C199.01 3.67 198.02 3.34 197 3 C197 2.34 197 1.68 197 1 C132.65 1 68.3 1 2 1 C2 1.99 2 2.98 2 4 C1.34 4 0.68 4 0 4 C0 2.68 0 1.36 0 0 Z " fill="#DAFBFE" transform="translate(0,0)"/>
<path d="M0 0 C7.59 0 15.18 0 23 0 C23 5.61 23 11.22 23 17 C17.06 17.33 11.12 17.66 5 18 C4.67 18.99 4.34 19.98 4 21 C9.61 21.33 15.22 21.66 21 22 C21 22.33 21 22.66 21 23 C14.07 23 7.14 23 0 23 C0 42.14 0 61.28 0 81 C-0.33 81 -0.66 81 -1 81 C-1.02316284 73.22878953 -1.04093523 65.45758714 -1.05181217 57.68635082 C-1.05703236 54.07791615 -1.06411436 50.46950508 -1.07543945 46.86108398 C-1.086299 43.37923767 -1.09228336 39.89741408 -1.09487724 36.41555214 C-1.0976261 34.43964005 -1.10543327 32.4637371 -1.11329651 30.48783875 C-1.11337204 29.28682022 -1.11344757 28.0858017 -1.11352539 26.84838867 C-1.115746 25.78915695 -1.11796661 24.72992523 -1.12025452 23.63859558 C-1 21 -1 21 0 18 C-1.32 17.67 -2.64 17.34 -4 17 C-4 16.01 -4 15.02 -4 14 C-3.01 14 -2.02 14 -1 14 C-1.01160156 13.15695313 -1.02320313 12.31390625 -1.03515625 11.4453125 C-1.04417969 10.34960938 -1.05320313 9.25390625 -1.0625 8.125 C-1.07410156 7.03445312 -1.08570313 5.94390625 -1.09765625 4.8203125 C-1 2 -1 2 0 0 Z M0 2 C0 6.62 0 11.24 0 16 C7.26 16 14.52 16 22 16 C22 11.38 22 6.76 22 2 C14.74 2 7.48 2 0 2 Z " fill="#3F70B6" transform="translate(52,53)"/>
<path d="M0 0 C0.99 0.33 1.98 0.66 3 1 C3 3.31 3 5.62 3 8 C2.34 8 1.68 8 1 8 C1 12.29 1 16.58 1 21 C0.34 21.33 -0.32 21.66 -1 22 C-1.02887814 18.52085059 -1.04675687 15.04173169 -1.0625 11.5625 C-1.07087891 10.56927734 -1.07925781 9.57605469 -1.08789062 8.55273438 C-1.09111328 7.60849609 -1.09433594 6.66425781 -1.09765625 5.69140625 C-1.10289307 4.81685791 -1.10812988 3.94230957 -1.11352539 3.04125977 C-1 1 -1 1 0 0 Z " fill="#1D5BAF" transform="translate(153,112)"/>
<path d="M0 0 C0.66 0 1.32 0 2 0 C2 1.65 2 3.3 2 5 C0.02 5 -1.96 5 -4 5 C-3.01 4.67 -2.02 4.34 -1 4 C-0.26676204 1.98491642 -0.26676204 1.98491642 0 0 Z " fill="#D1E4EF" transform="translate(198,195)"/>
</svg>
